<svg width="50" height="45" viewBox="0 0 50 45" fill="none" xmlns="http://www.w3.org/2000/svg">
<path d="M48.7903 9.13647C48.0145 7.34857 46.8959 5.72839 45.4971 4.36663C44.0972 3.00081 42.4468 1.91541 40.6354 1.16946C38.7572 0.392879 36.7427 -0.00461883 34.7088 4.0491e-05C31.8555 4.0491e-05 29.0716 0.777731 26.6524 2.2467C26.0736 2.5981 25.5238 2.98407 25.0029 3.4046C24.482 2.98407 23.9321 2.5981 23.3534 2.2467C20.9341 0.777731 18.1502 4.0491e-05 15.2969 4.0491e-05C13.2423 4.0491e-05 11.2513 0.391767 9.37029 1.16946C7.55295 1.91834 5.91503 2.99559 4.50862 4.36663C3.10798 5.72685 1.9891 7.34742 1.21542 9.13647C0.410927 10.9972 0 12.9731 0 15.0066C0 16.9249 0.393564 18.9239 1.1749 20.9574C1.82891 22.6568 2.76652 24.4195 3.96457 26.1996C5.86294 29.0166 8.47319 31.9545 11.7143 34.9328C17.0853 39.8697 22.4042 43.28 22.6299 43.4182L24.0016 44.2939C24.6093 44.6798 25.3906 44.6798 25.9983 44.2939L27.37 43.4182C27.5958 43.2742 32.9089 39.8697 38.2856 34.9328C41.5267 31.9545 44.137 29.0166 46.0354 26.1996C47.2334 24.4195 48.1768 22.6568 48.825 20.9574C49.6064 18.9239 49.9999 16.9249 49.9999 15.0066C50.0057 12.9731 49.5948 10.9972 48.7903 9.13647Z" fill="#F34970"/>
</svg>
