<svg width="36" height="40" viewBox="0 0 36 40" fill="none" xmlns="http://www.w3.org/2000/svg">
<path d="M11.5 1.25C11.5 0.918479 11.6317 0.600537 11.8661 0.366117C12.1005 0.131696 12.4185 0 12.75 0H22.75C23.0815 0 23.3995 0.131696 23.6339 0.366117C23.8683 0.600537 24 0.918479 24 1.25C24 1.58152 23.8683 1.89946 23.6339 2.13388C23.3995 2.3683 23.0815 2.5 22.75 2.5H12.75C12.4185 2.5 12.1005 2.3683 11.8661 2.13388C11.6317 1.89946 11.5 1.58152 11.5 1.25ZM30.125 4.8225C30.3593 4.58892 30.6767 4.45776 31.0075 4.45776C31.3383 4.45776 31.6557 4.58892 31.89 4.8225L35.425 8.3575C35.5444 8.47281 35.6396 8.61074 35.7051 8.76324C35.7706 8.91575 35.8051 9.07977 35.8066 9.24575C35.808 9.41172 35.7764 9.57632 35.7135 9.72994C35.6507 9.88356 35.5579 10.0231 35.4405 10.1405C35.3231 10.2579 35.1836 10.3507 35.0299 10.4135C34.8763 10.4764 34.7117 10.508 34.5457 10.5066C34.3798 10.5051 34.2157 10.4706 34.0632 10.4051C33.9107 10.3396 33.7728 10.2444 33.6575 10.125L30.125 6.59C29.8907 6.35559 29.759 6.0377 29.759 5.70625C29.759 5.37479 29.8907 5.05691 30.125 4.8225ZM35.25 22.5C35.25 27.1413 33.4062 31.5925 30.1244 34.8744C26.8425 38.1563 22.3913 40 17.75 40C13.1087 40 8.65752 38.1563 5.37563 34.8744C2.09374 31.5925 0.25 27.1413 0.25 22.5C0.25 17.8587 2.09374 13.4075 5.37563 10.1256C8.65752 6.84374 13.1087 5 17.75 5C22.3913 5 26.8425 6.84374 30.1244 10.1256C33.4062 13.4075 35.25 17.8587 35.25 22.5ZM16.5 11.25V23.75C16.5 24.0815 16.6317 24.3995 16.8661 24.6339C17.1005 24.8683 17.4185 25 17.75 25C18.0815 25 18.3995 24.8683 18.6339 24.6339C18.8683 24.3995 19 24.0815 19 23.75V11.25C19 10.9185 18.8683 10.6005 18.6339 10.3661C18.3995 10.1317 18.0815 10 17.75 10C17.4185 10 17.1005 10.1317 16.8661 10.3661C16.6317 10.6005 16.5 10.9185 16.5 11.25Z" fill="white"/>
</svg>
